# xmcd
#
# Track frame offsets:
#	150
#	24260
#	53912
#	71075
#	112012
#	122910
#	156382
#	189980
#	208172
#	219105
#	249750
#
# Disc length: 3704 seconds
#
# Revision: 1
# Processed by: cddbd v1.5.1PL0 Copyright (c) Steve Scherf et al.
# Submitted via: CDex 1.50Beta5
#
DISCID=990e760b
DTITLE=渕崎ゆり子 - サクラ大戦2ドラマCDシリーズ ラジヲドラマ・少年レッド
DYEAR=1997
DGENRE=Game
TTITLE0=渕崎ゆり子/プロローグ 深川の路地
TTITLE1=渕崎ゆり子/第一景 ラジヲ局1
TTITLE2=渕崎ゆり子/第ニ景 大帝国劇場・夜
TTITLE3=渕崎ゆり子/第三景 ラジヲ局2
TTITLE4=渕崎ゆり子/第四景 深川の長屋
TTITLE5=岡本麻弥/第五景 大帝国劇場・稽古場
TTITLE6=渕崎ゆり子/第六景 ラジヲ局3
TTITLE7=渕崎ゆり子/エピローグ 深川、千葉助の部屋
TTITLE8=横山智佐/暁の戦士
TTITLE9=渕崎ゆり子/連続特別企画「傑!少年レッド」 第一回「盗まれた新発明」
TTITLE10=帝国華撃団花組/夢のつづき
EXTD=
EXTT0=
EXTT1=
EXTT2=
EXTT3=
EXTT4=
EXTT5=
EXTT6=
EXTT7=
EXTT8=
EXTT9=
EXTT10=
PLAYORDER=
